<svg width="837" height="160" viewBox="0 0 837 160" fill="none" xmlns="http://www.w3.org/2000/svg">
<g clip-path="url(#clip0_108_110)">
<path d="M221.38 8.53333C224.448 8.53333 226.935 11.0206 226.935 14.0889V58.8182C226.935 64.0231 233.451 66.3703 236.77 62.3611L279.669 10.546C280.724 9.27119 282.293 8.53333 283.948 8.53333H301.532C306.232 8.53333 308.808 14.0071 305.813 17.6294L264.865 67.1442C263.358 68.9659 263.169 71.5415 264.394 73.5634L310.359 149.432C312.602 153.135 309.936 157.867 305.607 157.867H288.305C286.362 157.867 284.56 156.851 283.554 155.19L248.894 97.9738C246.916 94.7092 242.311 94.3652 239.871 97.2998L228.219 111.309C227.39 112.307 226.935 113.564 226.935 114.862V152.311C226.935 155.379 224.448 157.867 221.38 157.867H205.824C202.756 157.867 200.269 155.379 200.269 152.311V14.0889C200.269 11.0206 202.756 8.53333 205.824 8.53333H221.38Z" fill="#F7F7F7"/>
<path d="M352.107 107.307C348.793 107.307 346.183 110.206 346.905 113.44C350.312 128.703 359.573 137.6 373.199 137.6C381.141 137.6 387.77 134.533 391.272 129.366C392.593 127.416 394.614 125.867 396.969 125.867H410.665C414.143 125.867 416.787 129.05 415.615 132.325C409.591 149.167 393.342 160 373.199 160C342.265 160 320.292 134.827 320.292 99.6267C320.292 65.0667 341.412 40.5333 370.852 40.5333C399.652 40.5333 419.492 63.7867 419.492 97.7067V101.751C419.492 104.819 417.005 107.307 413.936 107.307H352.107ZM370.852 62.2933C360.31 62.2933 352.246 69.107 348.242 80.7552C347.109 84.0537 349.766 87.2533 353.254 87.2533H387.847C391.1 87.2533 393.705 84.4471 392.921 81.2903C390.011 69.5814 381.699 62.2933 370.852 62.2933Z" fill="#F7F7F7"/>
<path d="M458.875 152.311C458.875 155.379 456.388 157.867 453.32 157.867H438.831C435.763 157.867 433.275 155.379 433.275 152.311V48.2222C433.275 45.154 435.763 42.6667 438.831 42.6667H452.253C455.321 42.6667 457.809 45.154 457.809 48.2222V57.6906C457.809 57.994 458.055 58.24 458.358 58.24C458.547 58.24 458.723 58.1417 458.825 57.9822C465.654 47.2623 476.043 41.1733 488.742 41.1733C505.583 41.1733 517.96 51.6452 521.87 68.5851C522.611 71.7966 520.007 74.6667 516.711 74.6667H500.76C498.21 74.6667 496.091 72.854 494.776 70.6701C492.094 66.2163 487.106 63.5733 481.062 63.5733C468.049 63.5733 458.875 75.7333 458.875 93.44V152.311Z" fill="#F7F7F7"/>
<path d="M540.721 157.867C537.653 157.867 535.165 155.379 535.165 152.311V48.2222C535.165 45.154 537.653 42.6667 540.721 42.6667H554.143C557.211 42.6667 559.699 45.154 559.699 48.2222V57.2791C559.699 57.5741 559.938 57.8133 560.233 57.8133C560.429 57.8133 560.61 57.7041 560.705 57.5318C566.699 46.6154 576.878 40.5333 589.992 40.5333C611.112 40.5333 624.765 56.1067 624.765 80V152.311C624.765 155.379 622.278 157.867 619.21 157.867H604.721C601.653 157.867 599.165 155.379 599.165 152.311V82.1333C599.165 69.5467 592.979 61.8667 582.739 61.8667C569.939 61.8667 560.765 73.8133 560.765 90.6667V152.311C560.765 155.379 558.278 157.867 555.21 157.867H540.721Z" fill="#F7F7F7"/>
<path d="M675.057 107.307C671.743 107.307 669.133 110.206 669.855 113.44C673.262 128.703 682.523 137.6 696.149 137.6C704.091 137.6 710.72 134.533 714.222 129.366C715.543 127.416 717.564 125.867 719.919 125.867H733.615C737.093 125.867 739.737 129.05 738.565 132.325C732.541 149.167 716.292 160 696.149 160C665.215 160 643.242 134.827 643.242 99.6267C643.242 65.0667 664.362 40.5333 693.802 40.5333C722.602 40.5333 742.442 63.7867 742.442 97.7067V101.751C742.442 104.819 739.955 107.307 736.886 107.307H675.057ZM693.802 62.2933C683.26 62.2933 675.196 69.107 671.192 80.7552C670.059 84.0537 672.716 87.2533 676.204 87.2533H710.797C714.05 87.2533 716.655 84.4471 715.871 81.2903C712.961 69.5814 704.649 62.2933 693.802 62.2933Z" fill="#F7F7F7"/>
<path d="M795.052 116.693C795.052 131.2 801.879 138.24 815.959 138.24C819.346 138.24 822.87 137.828 826.415 136.966C830.329 136.015 834.519 138.737 834.519 142.765V151.982C834.519 154.14 833.278 156.133 831.246 156.86C825.398 158.953 818.374 160 811.052 160C783.745 160 769.452 145.067 769.452 116.693V29.0222C769.452 25.954 766.965 23.4667 763.896 23.4667H741.941C738.873 23.4667 736.385 20.9794 736.385 17.9111V5.55556C736.385 2.48731 738.873 0 741.941 0H789.496C792.565 0 795.052 2.48731 795.052 5.55556V116.693Z" fill="#F7F7F7"/>
<path d="M85.346 13.221L75.5024 13.2434C64.7018 13.2679 55.9661 22.0578 55.9906 32.8761L56.0129 42.7359C56.0172 44.6401 52.5389 47.1902 50.7296 46.6059L41.3609 43.5803C31.0813 40.2606 20.0614 45.9164 16.7471 56.2128L13.7265 65.5969C10.4123 75.8934 16.0587 86.9314 26.3383 90.2511L35.707 93.2767C37.5167 93.8611 38.8704 97.9539 37.7562 99.4973L31.9884 107.487C25.6598 116.254 27.6245 128.499 36.3768 134.838L44.3536 140.616C53.1058 146.955 65.3313 144.987 71.6599 136.22L77.4278 128.23C83.7563 119.464 81.7916 107.218 73.0393 100.879L65.0625 95.1016C62.3417 93.131 59.2905 83.845 60.3208 80.6442L63.3414 71.2601C64.3705 68.063 72.2599 62.2874 75.6135 62.2798C75.6135 62.2798 81.7255 61.3325 85.4571 62.2574C91.2166 63.685 96.7232 67.9769 97.7685 71.1745L100.832 80.5448C104.192 90.8261 115.238 96.4317 125.502 93.0653L134.857 89.9972C145.122 86.6308 150.718 75.5672 147.357 65.2859L144.294 55.9156C140.933 45.6344 129.888 40.0288 119.623 43.3952L110.268 46.4633C108.46 47.0565 104.973 44.5309 104.969 42.6247L104.947 32.7649C104.922 21.9465 96.1466 13.1965 85.346 13.221Z" fill="#F7F7F7"/>
<path d="M95 115.668C95 110.758 98.9797 106.779 103.889 106.779H126.111C131.02 106.779 135 110.758 135 115.668V137.89C135 142.799 131.02 146.779 126.111 146.779H103.889C98.9797 146.779 95 142.799 95 137.89V115.668Z" fill="#F7F7F7"/>
</g>
<defs>
<clipPath id="clip0_108_110">
<rect width="835.556" height="160" fill="white" transform="translate(0.555542)"/>
</clipPath>
</defs>
</svg>
