<svg width="836" height="160" viewBox="0 0 836 160" fill="none" xmlns="http://www.w3.org/2000/svg">
<path d="M220.824 8.53333C223.892 8.53333 226.38 11.0206 226.38 14.0889V58.8182C226.38 64.0231 232.895 66.3703 236.214 62.3611L279.113 10.546C280.169 9.27119 281.738 8.53333 283.393 8.53333H300.976C305.677 8.53333 308.253 14.0071 305.257 17.6294L264.309 67.1442C262.803 68.9659 262.614 71.5415 263.839 73.5634L309.803 149.432C312.046 153.135 309.381 157.867 305.052 157.867H287.75C285.807 157.867 284.005 156.851 282.998 155.19L248.338 97.9738C246.361 94.7092 241.756 94.3652 239.315 97.2998L227.664 111.309C226.834 112.307 226.38 113.564 226.38 114.862V152.311C226.38 155.379 223.892 157.867 220.824 157.867H205.269C202.2 157.867 199.713 155.379 199.713 152.311V14.0889C199.713 11.0206 202.2 8.53333 205.269 8.53333H220.824Z" fill="#1E1E1E"/>
<path d="M351.551 107.307C348.237 107.307 345.628 110.206 346.35 113.44C349.757 128.703 359.018 137.6 372.643 137.6C380.586 137.6 387.214 134.533 390.716 129.366C392.038 127.416 394.058 125.867 396.414 125.867H410.109C413.588 125.867 416.231 129.05 415.06 132.325C409.036 149.167 392.786 160 372.643 160C341.71 160 319.736 134.827 319.736 99.6267C319.736 65.0667 340.856 40.5333 370.296 40.5333C399.096 40.5333 418.936 63.7867 418.936 97.7067V101.751C418.936 104.819 416.449 107.307 413.381 107.307H351.551ZM370.296 62.2933C359.754 62.2933 351.69 69.107 347.687 80.7552C346.553 84.0537 349.211 87.2533 352.699 87.2533H387.291C390.544 87.2533 393.15 84.4471 392.365 81.2903C389.455 69.5814 381.143 62.2933 370.296 62.2933Z" fill="#1E1E1E"/>
<path d="M458.32 152.311C458.32 155.379 455.832 157.867 452.764 157.867H438.275C435.207 157.867 432.72 155.379 432.72 152.311V48.2222C432.72 45.154 435.207 42.6667 438.275 42.6667H451.697C454.766 42.6667 457.253 45.154 457.253 48.2222V57.6906C457.253 57.994 457.499 58.24 457.802 58.24C457.992 58.24 458.168 58.1417 458.269 57.9822C465.099 47.2623 475.488 41.1733 488.186 41.1733C505.027 41.1733 517.404 51.6452 521.314 68.5851C522.055 71.7966 519.451 74.6667 516.155 74.6667H500.204C497.655 74.6667 495.535 72.854 494.22 70.6701C491.538 66.2163 486.551 63.5733 480.506 63.5733C467.493 63.5733 458.32 75.7333 458.32 93.44V152.311Z" fill="#1E1E1E"/>
<path d="M540.165 157.867C537.097 157.867 534.61 155.379 534.61 152.311V48.2222C534.61 45.154 537.097 42.6667 540.165 42.6667H553.587C556.656 42.6667 559.143 45.154 559.143 48.2222V57.2791C559.143 57.5741 559.382 57.8133 559.677 57.8133C559.874 57.8133 560.055 57.7041 560.149 57.5318C566.144 46.6154 576.322 40.5333 589.436 40.5333C610.556 40.5333 624.21 56.1067 624.21 80V152.311C624.21 155.379 621.722 157.867 618.654 157.867H604.165C601.097 157.867 598.61 155.379 598.61 152.311V82.1333C598.61 69.5467 592.423 61.8667 582.183 61.8667C569.383 61.8667 560.21 73.8133 560.21 90.6667V152.311C560.21 155.379 557.722 157.867 554.654 157.867H540.165Z" fill="#1E1E1E"/>
<path d="M674.501 107.307C671.187 107.307 668.578 110.206 669.3 113.44C672.707 128.703 681.967 137.6 695.593 137.6C703.536 137.6 710.164 134.533 713.666 129.366C714.988 127.416 717.008 125.867 719.364 125.867H733.059C736.538 125.867 739.181 129.05 738.01 132.325C731.986 149.167 715.736 160 695.593 160C664.66 160 642.686 134.827 642.686 99.6267C642.686 65.0667 663.806 40.5333 693.246 40.5333C722.046 40.5333 741.886 63.7867 741.886 97.7067V101.751C741.886 104.819 739.399 107.307 736.331 107.307H674.501ZM693.246 62.2933C682.704 62.2933 674.64 69.107 670.637 80.7552C669.503 84.0537 672.161 87.2533 675.649 87.2533H710.242C713.494 87.2533 716.1 84.4471 715.315 81.2903C712.405 69.5814 704.093 62.2933 693.246 62.2933Z" fill="#1E1E1E"/>
<path d="M794.496 116.693C794.496 131.2 801.323 138.24 815.403 138.24C818.79 138.24 822.315 137.828 825.86 136.966C829.773 136.015 833.963 138.737 833.963 142.765V151.982C833.963 154.14 832.723 156.133 830.69 156.86C824.842 158.953 817.819 160 810.496 160C783.19 160 768.896 145.067 768.896 116.693V29.0222C768.896 25.954 766.409 23.4667 763.341 23.4667H741.385C738.317 23.4667 735.83 20.9794 735.83 17.9111V5.55556C735.83 2.48731 738.317 0 741.385 0H788.941C792.009 0 794.496 2.48731 794.496 5.55556V116.693Z" fill="#1E1E1E"/>
<path d="M84.7905 13.221L74.9468 13.2434C64.1463 13.2679 55.4105 22.0578 55.435 32.8761L55.4574 42.7359C55.4617 44.6401 51.9834 47.1902 50.1741 46.6059L40.8053 43.5803C30.5258 40.2606 19.5058 45.9164 16.1916 56.2128L13.171 65.5969C9.85673 75.8934 15.5032 86.9314 25.7827 90.2511L35.1515 93.2767C36.9612 93.8611 38.3148 97.9539 37.2007 99.4973L31.4328 107.487C25.1042 116.254 27.069 128.499 35.8212 134.838L43.798 140.616C52.5503 146.955 64.7757 144.987 71.1043 136.22L76.8722 128.23C83.2008 119.464 81.236 107.218 72.4838 100.879L64.507 95.1016C61.7862 93.131 58.7349 83.845 59.7652 80.6442L62.7858 71.2601C63.8149 68.063 71.7043 62.2874 75.0579 62.2798C75.0579 62.2798 81.1699 61.3325 84.9015 62.2574C90.661 63.685 96.1677 67.9769 97.2129 71.1745L100.276 80.5448C103.637 90.8261 114.682 96.4317 124.947 93.0653L134.302 89.9972C144.566 86.6308 150.162 75.5672 146.802 65.2859L143.739 55.9156C140.378 45.6344 129.332 40.0288 119.068 43.3952L109.713 46.4633C107.904 47.0565 104.418 44.5309 104.413 42.6247L104.391 32.7649C104.367 21.9465 95.591 13.1965 84.7905 13.221Z" fill="#AC86F9"/>
<path d="M94.4445 115.668C94.4445 110.758 98.4241 106.779 103.333 106.779H125.556C130.465 106.779 134.444 110.758 134.444 115.668V137.89C134.444 142.799 130.465 146.779 125.556 146.779H103.333C98.4241 146.779 94.4445 142.799 94.4445 137.89V115.668Z" fill="#AC86F9"/>
</svg>
